<?xml version="1.0" encoding="utf-8"?>
<!-- Generator: Adobe Illustrator 23.0.1, SVG Export Plug-In . SVG Version: 6.00 Build 0)  -->
<svg version="1.1" id="Calque_1" xmlns="http://www.w3.org/2000/svg" xmlns:xlink="http://www.w3.org/1999/xlink" x="0px" y="0px"
	 viewBox="0 0 200 200" style="enable-background:new 0 0 200 200;" xml:space="preserve">
<style type="text/css">
	.st0{fill:#FFFFFF;}
</style>
<g id="_x36_8lluJ_1_">
	<g>
		<g>
			<path class="st0" d="M75.3,153.3c-13.1,0-26.1,0-39.2,0c-0.1-1.2-0.1-2.2,0.8-3.3c4.5-5.3,8.9-10.7,13.3-16.1
				c1.2-1.5,1.8-3.2,1.5-5.2c0-0.4,0-0.7,0-1.1c0-19,0-37.9,0-56.9c0-2.1-0.6-3.7-1.9-5.3c-3.8-4.4-7.3-8.9-11.1-13.2
				c-0.9-1.1-1.1-2.1-0.9-3.4c0.3,0,0.5,0,0.8,0c12.2,0,24.4,0,36.6,0c0.7,0,0.9,0.2,1.2,0.8c9.6,21,19.1,42,28.7,63
				c0.1,0.3,0.3,0.6,0.5,1c0.5-1.2,0.9-2.3,1.4-3.4c8.1-20.2,16.2-40.4,24.3-60.6c0.2-0.5,0.4-0.8,1-0.8c11.7,0,23.4,0,35,0
				c0.2,0,0.4,0,0.7,0c0.1,1.2,0.1,2.2-0.9,3.2c-3.3,3-6.5,6.2-9.7,9.2c-0.7,0.7-1,1.5-1,2.5c0,0.5,0,1,0,1.5c0,23.9,0,47.9,0,71.8
				c0,0.5,0,1,0,1.6c0,1,0.3,1.8,1,2.5c3.3,3.3,6.7,6.5,10,9.8c0.8,0.8,0.3,1.7,0.5,2.7c-17.3,0-34.5,0-51.7,0
				c-0.2-1.2-0.1-2.2,0.9-3.2c3.2-3,6.3-6.1,9.5-9.1c0.8-0.8,1.2-1.7,1.2-2.9c0-19.8,0-39.6,0-59.4c0-0.1,0-0.2-0.1-0.4
				c-0.1,0.3-0.2,0.5-0.3,0.8c-9.6,24.4-19.2,48.8-28.8,73.2c-0.3,0.7-0.6,1-1.3,0.9c-0.7-0.1-1.5-0.1-2.2,0c-0.6,0.1-1-0.2-1.2-0.8
				c-3.1-6.9-6.3-13.7-9.4-20.6c-8-17.6-16.1-35.1-24.2-52.7c-0.1-0.2-0.2-0.5-0.5-0.7c0,0.3,0,0.7,0,1c0,16,0,32.1,0,48.1
				c0,1.2,0,2.5,0.2,3.6c0.2,0.9,0.7,1.8,1.3,2.5c4.4,5.4,8.9,10.9,13.4,16.2C75.3,151.1,75.4,152.1,75.3,153.3z"/>
		</g>
	</g>
</g>
</svg>
