<?xml version="1.0" encoding="utf-8"?>
<!-- Generator: Adobe Illustrator 23.0.1, SVG Export Plug-In . SVG Version: 6.00 Build 0)  -->
<svg version="1.1" id="Calque_1" xmlns="http://www.w3.org/2000/svg" xmlns:xlink="http://www.w3.org/1999/xlink" x="0px" y="0px"
	 viewBox="0 0 200 200" style="enable-background:new 0 0 200 200;" xml:space="preserve">
<style type="text/css">
	.st0{fill:#FFFFFF;}
</style>
<g id="VJqHuO_1_">
	<g>
		<g>
			<path class="st0" d="M107.2,159.6c-8.3,0-16.5,0-24.7,0c0-26.5,0-53,0-79.5c7.8,0,15.6,0,23.6,0c0,3.5,0,7,0,10.9
				c1.7-2,2.9-3.8,4.4-5.3c6.7-6.5,14.8-8.3,23.8-7.4c5.1,0.4,10,1.7,14.2,4.6c5.4,3.9,8.4,9.5,9.5,15.8c1,5.8,1.6,11.7,1.7,17.6
				c0.3,13.9,0.1,27.9,0.1,41.9c0,0.4-0.1,0.9-0.1,1.5c-8.2,0-16.3,0-24.7,0c0-0.7,0-1.4,0-2c0-12.3,0.1-24.4-0.1-36.7
				c-0.1-4.1-0.4-8.4-1.3-12.4c-1.4-6.1-5.9-9-12.3-8.7c-8.6,0.5-13,5.2-13.8,14.4c-0.3,2.7-0.4,5.3-0.4,8.1c0,11.7,0,23.4,0,35.1
				C107.2,158,107.2,158.7,107.2,159.6z"/>
		</g>
		<g>
			<path class="st0" d="M42.1,80.1c8.2,0,16.4,0,24.6,0c0,26.5,0,52.9,0,79.5c-8.1,0-16.3,0-24.6,0C42.1,133.1,42.1,106.7,42.1,80.1
				z"/>
		</g>
		<g>
			<path class="st0" d="M54.5,40.3c7.9,0,14.4,6.5,14.4,14.3S62.4,69,54.5,69s-14.4-6.5-14.4-14.4C40,46.9,46.6,40.3,54.5,40.3z"/>
		</g>
	</g>
</g>
</svg>
