<?xml version="1.0" encoding="utf-8"?>
<!-- Generator: Adobe Illustrator 23.0.1, SVG Export Plug-In . SVG Version: 6.00 Build 0)  -->
<svg version="1.1" id="Calque_1" xmlns="http://www.w3.org/2000/svg" xmlns:xlink="http://www.w3.org/1999/xlink" x="0px" y="0px"
	 viewBox="0 0 200 200" style="enable-background:new 0 0 200 200;" xml:space="preserve">
<style type="text/css">
	.st0{fill:#FFFFFF;}
</style>
<g id="wReMlm_1_">
	<g>
		<g>
			<path class="st0" d="M35.4,141.4c0-26.5,0-52.8,0-79.3c0.8,0,1.7-0.1,2.5-0.1c13.5,0,27,0,40.5,0c5.3,0,10.3,1.2,14.7,4.2
				c10.2,6.9,10.2,22,0,30.2c-0.9,0.7-1.8,1.3-2.8,2.1c1.3,0.6,2.4,1.1,3.5,1.6c14.8,7.2,13.1,28.6,2.1,35.9
				c-4.9,3.3-10.4,5.3-16.2,5.4C65,141.6,50.3,141.4,35.4,141.4z M53.7,106.3c0,7,0,14.2,0,21.4c7.8,0,15.4,0.3,23-0.1
				c5.3-0.3,9.5-5.2,9.6-10.5c0.1-5.2-3.7-10.4-8.9-10.7C69.6,105.9,61.7,106.3,53.7,106.3z M53.7,75.5c0,6.3,0,12.4,0,18.6
				c6.5,0,12.9,0,19.2,0c5.4,0,9.5-3.6,9.9-8.6c0.4-4.9-3.1-9.5-8.5-9.9C67.6,75.2,60.7,75.5,53.7,75.5z"/>
		</g>
		<g>
			<path class="st0" d="M123.5,116.4c0.4,11.6,10.3,18.1,20.6,13.7c2.2-1,4.1-2.9,5.7-4.8c1-1.2,1.8-1.7,3.3-1.7c4,0.1,8,0,12.3,0
				c-1.3,5.7-4.1,10.2-8.4,13.7c-9.2,7.5-31.6,8.9-42.4-3.2c-8.5-9.6-9.9-26.9-2.5-38.3c7.4-11.4,21.7-16.2,34.7-11.6
				c13.2,4.6,21.3,17.4,19.9,31.4c0,0.2-0.1,0.3-0.3,0.7C152.2,116.4,138,116.4,123.5,116.4z M150.3,106.6
				c-0.8-5.5-3.5-9.5-8.5-11.6c-5-2.1-9.7-1.3-13.8,2.2c-2.9,2.4-4.5,5.6-4.9,9.4C132.5,106.6,141.3,106.6,150.3,106.6z"/>
		</g>
		<g>
			<path class="st0" d="M118.8,67.2c11.8,0,23.3,0,35,0c0,2.5,0,5,0,7.7c-11.6,0-23.2,0-35,0C118.8,72.3,118.8,69.9,118.8,67.2z"/>
		</g>
	</g>
</g>
</svg>
